<?xml version="1.0" encoding="UTF-8"?>
<svg xmlns="http://www.w3.org/2000/svg" xmlns:xlink="http://www.w3.org/1999/xlink" width="365pt" height="242.93pt" viewBox="0 0 365 242.93" version="1.1" opacity="0.11">
<defs>
<clipPath id="clip1">
  <path d="M 0 92 L 72 92 L 72 242.929688 L 0 242.929688 Z M 0 92 "/>
</clipPath>
</defs>
<g id="surface1">
<g clip-path="url(#clip1)" clip-rule="nonzero">
<path style=" stroke:none;fill-rule:nonzero;fill:rgb(14.099121%,14.498901%,14.498901%);fill-opacity:1;" d="M 71.011719 199.460938 L 71.011719 92.460938 L 39.3125 101.179688 L 39.3125 214.96875 C 39.3125 220.964844 38.851563 225.003906 37.929688 227.078125 C 37.007813 229.15625 35.667969 230.195313 33.914063 230.195313 C 33.085938 230.195313 32.160156 229.871094 31.144531 229.226563 C 30.132813 228.578125 28.886719 227.285156 27.410156 225.347656 C 26.117188 223.597656 24.476563 221.820313 22.496094 220.019531 C 20.511719 218.21875 17.855469 217.320313 14.535156 217.320313 C 10.105469 217.320313 6.574219 218.429688 3.945313 220.644531 C 1.316406 222.859375 0 225.578125 0 228.808594 C 0 232.6875 2.351563 236.007813 7.058594 238.777344 C 11.765625 241.542969 18.550781 242.929688 27.410156 242.929688 C 33.960938 242.929688 39.914063 242.398438 45.265625 241.335938 C 50.617188 240.277344 55.210938 238.175781 59.039063 235.039063 C 62.867188 231.902344 65.824219 227.496094 67.898438 221.820313 C 69.976563 216.144531 71.011719 208.691406 71.011719 199.460938 "/>
</g>
<path style=" stroke:none;fill-rule:nonzero;fill:rgb(14.099121%,14.498901%,14.498901%);fill-opacity:1;" d="M 115.039063 95.503906 L 83.480469 95.503906 L 83.480469 168.730469 C 83.480469 173.253906 84.425781 177.5 86.316406 181.46875 C 88.210938 185.433594 90.816406 188.894531 94.140625 191.847656 C 97.460938 194.800781 101.335938 197.132813 105.765625 198.839844 C 110.195313 200.546875 114.996094 201.402344 120.164063 201.402344 C 124.59375 201.402344 129.160156 200.339844 133.867188 198.21875 C 138.574219 196.09375 143.003906 193.28125 147.15625 189.773438 L 147.15625 199.460938 L 178.71875 199.460938 L 178.71875 95.503906 L 147.15625 95.503906 L 147.15625 170.53125 C 144.757813 174.222656 141.941406 177.289063 138.710938 179.738281 C 135.484375 182.183594 132.667969 183.40625 130.269531 183.40625 C 128.144531 183.40625 126.160156 183.011719 124.316406 182.226563 C 122.46875 181.445313 120.855469 180.40625 119.472656 179.113281 C 118.085938 177.820313 117.003906 176.277344 116.21875 174.476563 C 115.433594 172.675781 115.039063 170.761719 115.039063 168.730469 L 115.039063 95.503906 "/>
<path style=" stroke:none;fill-rule:nonzero;fill:rgb(14.099121%,14.498901%,14.498901%);fill-opacity:1;" d="M 222.574219 199.460938 L 222.574219 44.976563 L 191.148438 53.699219 L 191.148438 199.460938 L 222.574219 199.460938 "/>
<path style=" stroke:none;fill-rule:nonzero;fill:rgb(14.099121%,14.498901%,14.498901%);fill-opacity:1;" d="M 235.140625 101.179688 L 235.140625 199.460938 L 266.703125 199.460938 L 266.703125 92.460938 L 235.140625 101.179688 "/>
<path style=" stroke:none;fill-rule:nonzero;fill:rgb(14.099121%,14.498901%,14.498901%);fill-opacity:1;" d="M 365 199.460938 L 365 121.527344 C 365 117.191406 364.167969 113.269531 362.507813 109.761719 C 360.847656 106.257813 358.261719 103.257813 354.757813 100.765625 C 351.25 98.273438 346.796875 96.359375 341.398438 95.019531 C 336 93.683594 329.5625 93.011719 322.089844 93.011719 C 315.996094 93.011719 310.230469 93.660156 304.785156 94.949219 C 299.339844 96.242188 294.539063 97.996094 290.386719 100.210938 C 286.234375 102.425781 282.9375 105.078125 280.488281 108.171875 C 278.042969 111.261719 276.820313 114.605469 276.820313 118.207031 C 276.820313 122.082031 278.207031 125.289063 280.976563 127.828125 C 283.742188 130.363281 287.34375 131.632813 291.773438 131.632813 C 294.632813 131.632813 297.007813 131.21875 298.902344 130.386719 C 300.792969 129.558594 302.246094 128.449219 303.261719 127.066406 C 304.277344 125.683594 304.992188 124.066406 305.40625 122.222656 C 305.820313 120.375 306.03125 118.484375 306.03125 116.546875 C 306.03125 113.132813 307 110.222656 308.9375 107.824219 C 310.875 105.425781 314.335938 104.226563 319.320313 104.226563 C 323.5625 104.226563 326.957031 105.609375 329.492188 108.378906 C 332.03125 111.148438 333.300781 115.851563 333.300781 122.496094 L 333.300781 132.742188 L 329.839844 133.570313 C 325.59375 134.863281 321.304688 136.226563 316.964844 137.65625 C 312.628906 139.085938 308.453125 140.65625 304.4375 142.363281 C 300.421875 144.070313 296.664063 145.9375 293.15625 147.96875 C 289.648438 150 286.582031 152.304688 283.949219 154.890625 C 281.320313 157.472656 279.242188 160.382813 277.722656 163.609375 C 276.199219 166.839844 275.4375 170.441406 275.4375 174.40625 C 275.4375 178.285156 276.152344 181.859375 277.582031 185.136719 C 279.011719 188.410156 281.066406 191.25 283.742188 193.648438 C 286.417969 196.050781 289.671875 197.941406 293.503906 199.324219 C 297.332031 200.707031 301.644531 201.402344 306.445313 201.402344 C 309.953125 201.402344 312.996094 201.148438 315.582031 200.640625 C 318.164063 200.132813 320.496094 199.417969 322.570313 198.492188 C 324.648438 197.570313 326.515625 196.488281 328.179688 195.242188 C 329.839844 193.996094 331.546875 192.632813 333.300781 191.15625 L 333.300781 199.460938 Z M 333.300781 145.753906 L 333.300781 175.792969 C 330.070313 178.191406 327.140625 180.175781 324.511719 181.746094 C 321.878906 183.3125 319.273438 184.097656 316.6875 184.097656 C 315.398438 184.097656 314.195313 183.707031 313.089844 182.921875 C 311.980469 182.136719 310.96875 181.097656 310.042969 179.808594 C 309.121094 178.515625 308.40625 176.96875 307.898438 175.167969 C 307.390625 173.371094 307.136719 171.5 307.136719 169.5625 C 307.136719 167.070313 307.921875 164.671875 309.492188 162.363281 C 311.058594 160.058594 313.113281 157.890625 315.652344 155.859375 C 318.1875 153.828125 321.003906 151.960938 324.09375 150.25 C 327.1875 148.542969 330.253906 147.042969 333.300781 145.753906 "/>
<path style=" stroke:none;fill-rule:nonzero;fill:rgb(41.598511%,49.798584%,74.899292%);fill-opacity:1;" d="M 54.796875 84.597656 C 65.59375 84.597656 74.347656 75.84375 74.347656 65.046875 C 74.347656 54.246094 65.59375 45.492188 54.796875 45.492188 C 43.996094 45.492188 35.242188 54.246094 35.242188 65.046875 C 35.242188 75.84375 43.996094 84.597656 54.796875 84.597656 "/>
<path style=" stroke:none;fill-rule:nonzero;fill:rgb(29.798889%,39.199829%,68.598938%);fill-opacity:1;" d="M 54.796875 84.597656 L 54.796875 86.097656 C 66.421875 86.097656 75.847656 76.671875 75.847656 65.046875 C 75.847656 53.417969 66.421875 43.992188 54.796875 43.992188 C 43.167969 43.992188 33.746094 53.417969 33.742188 65.046875 C 33.746094 76.671875 43.167969 86.097656 54.796875 86.097656 L 54.796875 83.097656 C 49.804688 83.097656 45.304688 81.078125 42.03125 77.808594 C 38.761719 74.539063 36.746094 70.035156 36.746094 65.046875 C 36.746094 60.054688 38.761719 55.554688 42.03125 52.28125 C 45.304688 49.011719 49.804688 46.996094 54.796875 46.996094 C 59.785156 46.996094 64.289063 49.011719 67.558594 52.28125 C 70.828125 55.554688 72.847656 60.054688 72.847656 65.046875 C 72.847656 70.035156 70.828125 74.539063 67.558594 77.808594 C 64.289063 81.078125 59.785156 83.097656 54.796875 83.097656 L 54.796875 84.597656 "/>
<path style=" stroke:none;fill-rule:nonzero;fill:rgb(83.898926%,38.798523%,36.099243%);fill-opacity:1;" d="M 253.109375 84.597656 C 263.90625 84.597656 272.660156 75.84375 272.660156 65.046875 C 272.660156 54.246094 263.90625 45.492188 253.109375 45.492188 C 242.3125 45.492188 233.558594 54.246094 233.558594 65.046875 C 233.558594 75.84375 242.3125 84.597656 253.109375 84.597656 "/>
<path style=" stroke:none;fill-rule:nonzero;fill:rgb(79.998779%,23.899841%,19.999695%);fill-opacity:1;" d="M 253.109375 84.597656 L 253.109375 86.097656 C 264.738281 86.097656 274.160156 76.671875 274.160156 65.046875 C 274.160156 53.417969 264.738281 43.992188 253.109375 43.992188 C 241.480469 43.992188 232.058594 53.417969 232.058594 65.046875 C 232.058594 76.671875 241.480469 86.097656 253.109375 86.097656 L 253.109375 83.097656 C 248.121094 83.097656 243.617188 81.078125 240.347656 77.808594 C 237.078125 74.539063 235.058594 70.035156 235.058594 65.046875 C 235.058594 60.054688 237.078125 55.554688 240.347656 52.28125 C 243.617188 49.011719 248.121094 46.996094 253.109375 46.996094 C 258.097656 46.996094 262.601563 49.011719 265.875 52.28125 C 269.144531 55.554688 271.160156 60.054688 271.160156 65.046875 C 271.160156 70.035156 269.144531 74.539063 265.875 77.808594 C 262.601563 81.078125 258.097656 83.097656 253.109375 83.097656 L 253.109375 84.597656 "/>
<path style=" stroke:none;fill-rule:nonzero;fill:rgb(37.298584%,67.799377%,31.399536%);fill-opacity:1;" d="M 278.773438 40.605469 C 289.570313 40.605469 298.324219 31.851563 298.324219 21.054688 C 298.324219 10.257813 289.570313 1.503906 278.773438 1.503906 C 267.972656 1.503906 259.21875 10.257813 259.21875 21.054688 C 259.21875 31.851563 267.972656 40.605469 278.773438 40.605469 "/>
<path style=" stroke:none;fill-rule:nonzero;fill:rgb(21.998596%,59.999084%,27.49939%);fill-opacity:1;" d="M 278.773438 40.605469 L 278.773438 42.105469 C 290.398438 42.105469 299.824219 32.683594 299.824219 21.054688 C 299.824219 9.425781 290.398438 0.00390625 278.773438 0.00390625 C 267.144531 0.00390625 257.71875 9.425781 257.71875 21.054688 C 257.71875 32.683594 267.144531 42.105469 278.773438 42.105469 L 278.773438 39.105469 C 273.78125 39.105469 269.277344 37.085938 266.007813 33.816406 C 262.738281 30.546875 260.722656 26.042969 260.722656 21.054688 C 260.722656 16.066406 262.738281 11.5625 266.007813 8.289063 C 269.277344 5.019531 273.78125 3.003906 278.773438 3.003906 C 283.761719 3.003906 288.265625 5.019531 291.535156 8.289063 C 294.804688 11.5625 296.820313 16.066406 296.824219 21.054688 C 296.820313 26.042969 294.804688 30.546875 291.535156 33.816406 C 288.265625 37.085938 283.761719 39.105469 278.773438 39.105469 L 278.773438 40.605469 "/>
<path style=" stroke:none;fill-rule:nonzero;fill:rgb(66.299438%,47.499084%,70.999146%);fill-opacity:1;" d="M 304.433594 84.597656 C 315.230469 84.597656 323.984375 75.84375 323.984375 65.046875 C 323.984375 54.246094 315.230469 45.492188 304.433594 45.492188 C 293.636719 45.492188 284.882813 54.246094 284.882813 65.046875 C 284.882813 75.84375 293.636719 84.597656 304.433594 84.597656 "/>
<path style=" stroke:none;fill-rule:nonzero;fill:rgb(57.299805%,34.899902%,64.299011%);fill-opacity:1;" d="M 304.433594 84.597656 L 304.433594 86.097656 C 316.0625 86.097656 325.484375 76.671875 325.484375 65.046875 C 325.484375 53.417969 316.0625 43.992188 304.433594 43.992188 C 292.804688 43.992188 283.382813 53.417969 283.382813 65.046875 C 283.382813 76.671875 292.804688 86.097656 304.433594 86.097656 L 304.433594 83.097656 C 299.445313 83.097656 294.941406 81.078125 291.667969 77.808594 C 288.398438 74.539063 286.382813 70.035156 286.382813 65.046875 C 286.382813 60.054688 288.398438 55.554688 291.667969 52.28125 C 294.941406 49.011719 299.445313 46.996094 304.433594 46.996094 C 309.421875 46.996094 313.925781 49.011719 317.195313 52.28125 C 320.464844 55.554688 322.484375 60.054688 322.484375 65.046875 C 322.484375 70.035156 320.464844 74.539063 317.195313 77.808594 C 313.925781 81.078125 309.421875 83.097656 304.433594 83.097656 L 304.433594 84.597656 "/>
</g>
</svg>
