<svg xmlns="http://www.w3.org/2000/svg" width="200.2646mm" height="34.3704mm" viewBox="0 0 567.6791 97.4278"><defs><style>.cls-1{fill:#e8e7db;}.cls-2,.cls-3{fill:#1f1e21;}.cls-2{fill-rule:evenodd;}.cls-4{fill:#0084ba;}.cls-5{fill:#69a03a;}.cls-6{fill:#c8a021;}.cls-7{fill:#a4112e;}.cls-8{fill:#588e39;}.cls-9{fill:#577437;}.cls-10{fill:#e8b60e;}.cls-11{fill:#c43727;}.cls-12{fill:#de9c26;}.cls-13{fill:#0276b1;}.cls-14{fill:#7d1934;}.cls-15{fill:#49a4cf;}.cls-16{fill:#ce6722;}.cls-17{fill:#bf0028;}.cls-18{fill:#b90073;}.cls-19{fill:#1c3660;}.cls-20{fill:#bf8c23;}.cls-21{fill:#174e7f;}</style></defs><title>4Test Gladsaxe logo og cirkel A (2)</title><g id="Logo"><path class="cls-1" d="M1.4759,19.6272S15.4667,13.2788,36.21,13.2788s34.9971,6.9953,34.9971,6.9953a43.5077,43.5077,0,0,0-2.3251,6.6113,84.494,84.494,0,0,0-1.5567,8.9363V64.531S65.3846,88.4488,37.5243,88.4488,5.1151,65.8048,5.1151,65.8048l.1415-30.246a32.1089,32.1089,0,0,0-1.9409-10.21C1.3546,20.2944,1.4759,19.6272,1.4759,19.6272Z"/><path class="cls-2" d="M65.243,24.7221a7.5089,7.5089,0,0,0,.02-.91,3.524,3.524,0,0,0-.101-.4448,2.2512,2.2512,0,0,0-.182-.3842,4.1231,4.1231,0,0,0-.2628-.3639,2.0259,2.0259,0,0,0-.3235-.283,3.2865,3.2865,0,0,0-.3842-.182,2.869,2.869,0,0,0-.4448-.1011,1.994,1.994,0,0,0-.4852.02,1.4434,1.4434,0,0,1-.4043.02c-.0809-.02-.1618-.04-.182-.0808a.1273.1273,0,0,1,0-.1213c.02-.0405.1011-.2224.182-.3842a2.7915,2.7915,0,0,0,.2021-.4852c.02-.1011.0607-.2628.0809-.3639a1.261,1.261,0,0,0-.02-.3842,2.1373,2.1373,0,0,0-.1213-.3841,1.2677,1.2677,0,0,0-.2426-.3639,3.2873,3.2873,0,0,0-.3842-.3437,2.2808,2.2808,0,0,0-.4448-.2224,2.8576,2.8576,0,0,0-.4448-.1011,4.2569,4.2569,0,0,0-.7278,0,8.1762,8.1762,0,0,0-1.0918.182,2.2227,2.2227,0,0,1-.8289.0808,5.4674,5.4674,0,0,0-.6267-.1617c-.2022-.0405-.6268-.0809-.91-.1011a4.503,4.503,0,0,0-.748,0c-.1213.02-.3437.0606-.5055.1011a2.2663,2.2663,0,0,0-.4448.1819,2.5423,2.5423,0,0,0-.6267.5661,1.9251,1.9251,0,0,0-.2022.3437,2.5637,2.5637,0,0,0-.1213.364c-.02.1011-.0606.283-.0809.3841a1.4965,1.4965,0,0,0,.02.4246,1.41,1.41,0,0,0,.1617.4043,1.8977,1.8977,0,0,0,.1617.3033.1621.1621,0,0,1,.02.1617c-.02.02-.0405.0607-.0809.0809a.2791.2791,0,0,1-.182,0c-.0606-.02-.2224-.04-.3235-.0606a2.5669,2.5669,0,0,0-.3841-.02,1.1458,1.1458,0,0,0-.3639.0607,1.4357,1.4357,0,0,0-.3639.1617,3.5654,3.5654,0,0,0-.3437.2427,1.36,1.36,0,0,0-.2831.3032,1.4113,1.4113,0,0,0-.2224.4246,3.23,3.23,0,0,0-.1617.5257c-.02.1617-.0607.465-.0809.7076a4.1217,4.1217,0,0,0,0,.7076c.02.1618.0809.4448.1213.647a2.6873,2.6873,0,0,1,0,.9907,7.8072,7.8072,0,0,0-.1213,1.0917,3.7576,3.7576,0,0,0,.02.7077,3.6376,3.6376,0,0,0,.1213.4447,2.3213,2.3213,0,0,0,.2628.4853,3.1075,3.1075,0,0,0,.364.465,1.8218,1.8218,0,0,0,.4043.283,1.319,1.319,0,0,0,.4853.1213,4.7274,4.7274,0,0,0,.5458.02,2.7319,2.7319,0,0,0,.5661-.0809,4.302,4.302,0,0,0,.5459-.182,3.56,3.56,0,0,0,.7683-.6065l.2426-.2426c.2831-.2831.5661-.5459.6268-.5863a1.0647,1.0647,0,0,0,.2224-.1416.2788.2788,0,0,1,.1819,0c.0405.02.0809.1416.1011.2427a2.7755,2.7755,0,0,1-.02.5458l-.3639,3.1945L58.5914,34.69l.4447-.5863a.2792.2792,0,0,0,.0607-.0809l.2224-.3033.8491-1.112-.0606-.4852v-.3235l-.2831-2.0622a3.5406,3.5406,0,0,1-.0606-.8087.8418.8418,0,0,1,.0809-.2022,1.2012,1.2012,0,0,1,.0808-.1617.0888.0888,0,0,1,.1011-.02.6766.6766,0,0,1,.1213.0607,1.6323,1.6323,0,0,0,.1618.1213,3.9373,3.9373,0,0,1,.283.3639,4.26,4.26,0,0,0,.3033.3842,2.5477,2.5477,0,0,0,.3437.2628c.1213.0809.3033.2022.4448.283a3.7117,3.7117,0,0,0,.4852.2629,1.5532,1.5532,0,0,0,.4852.1213,3.7406,3.7406,0,0,0,.4853.02,1.8713,1.8713,0,0,0,.4852-.0809,4.3291,4.3291,0,0,0,.4448-.2021c.1213-.0809.283-.2022.3841-.2831a2.1117,2.1117,0,0,0,.3437-.3841,4.8037,4.8037,0,0,0,.2426-.4448c.04-.1213.1011-.2831.1213-.3842a3.247,3.247,0,0,0,.0405-.5256,5.3057,5.3057,0,0,0-.02-.5863,4.2852,4.2852,0,0,1-.04-.4853,1.5118,1.5118,0,0,1-.02-.2224.8339.8339,0,0,1-.02-.1819,1.7477,1.7477,0,0,1-.02-.3033,3.74,3.74,0,0,1,.0606-.5257C65.1622,25.5712,65.2228,25.086,65.243,24.7221Zm-.5459.1819a3.5005,3.5005,0,0,1-.0808.5459c-.02.1213-.0809.3235-.1011.465a3.2321,3.2321,0,0,0,0,.6268c.02.2022.0809.5256.1213.7278a2.4363,2.4363,0,0,1,.02.7683,2.4059,2.4059,0,0,1-.1213.5863,2.8661,2.8661,0,0,1-.1617.3639,3.0528,3.0528,0,0,1-.2022.3437,3.3617,3.3617,0,0,1-.2831.2629,1.528,1.528,0,0,1-.3639.1819,1.5751,1.5751,0,0,1-.4448.0809,1.5,1.5,0,0,1-.7885-.2224,4.2667,4.2667,0,0,1-.4852-.3639c-.1617-.1415-.465-.4448-.6672-.6672s-.4246-.4852-.5257-.5863c-.0808-.1011-.2021-.2224-.2628-.2831a1.2166,1.2166,0,0,0-.2628-.1819,1.7028,1.7028,0,0,0-.3437-.1011.5769.5769,0,0,0-.3235.04.9716.9716,0,0,0-.2224.182.4535.4535,0,0,0-.1213.283,6.0639,6.0639,0,0,0,.0606.89l.2224,1.7994.1213,1.2535a2.1345,2.1345,0,0,1-.3234,1.0109l-.0607.0809a.4753.4753,0,0,1-.8289,0l-.0607-.0809a2.4775,2.4775,0,0,1-.3841-1.2939l.1415-2.77a7.8333,7.8333,0,0,0,0-.9907.9613.9613,0,0,0-.0809-.3639.3192.3192,0,0,0-.1617-.1011.6885.6885,0,0,0-.2022-.02.39.39,0,0,0-.2022.0607,2.6476,2.6476,0,0,0-.4245.3841c-.1618.182-.4044.4448-.5257.5661l-.4852.4852a7.3762,7.3762,0,0,1-.6268.4853,3.12,3.12,0,0,1-.5459.3032c-.1213.04-.283.1011-.3841.1213a2.27,2.27,0,0,1-.3639.0607,1.0249,1.0249,0,0,1-.3437-.0607,1.6974,1.6974,0,0,1-.2831-.1213,1.0889,1.0889,0,0,1-.2426-.1819A2.9758,2.9758,0,0,1,52.89,29.21a1.5164,1.5164,0,0,1-.1617-.3639c-.02-.1213-.0809-.4448-.1011-.7278a7.5986,7.5986,0,0,1-.02-.95,6.1288,6.1288,0,0,1,.0808-.7278,2.2747,2.2747,0,0,0,0-.5257c-.02-.1213-.0606-.4852-.0808-.8087s-.02-.6874-.02-.8289a2.2335,2.2335,0,0,1,.1011-.5863,2.1,2.1,0,0,1,.2022-.4651c.0607-.0808.1618-.1819.2224-.2628a1.3212,1.3212,0,0,1,.3033-.2022A2.4244,2.4244,0,0,1,53.86,22.66a1.9481,1.9481,0,0,1,.4852,0,3.542,3.542,0,0,1,.4448.1011,2.314,2.314,0,0,1,.3841.2022c.1011.0809.2629.2022.3437.2831s.2629.3032.4044.465.3841.4246.5257.5661a1.6646,1.6646,0,0,0,.4852.3437,1.6042,1.6042,0,0,0,.3437.0809.3908.3908,0,0,0,.2022-.0607,1.1289,1.1289,0,0,0,.1617-.1011.3014.3014,0,0,0,.0607-.1617.6972.6972,0,0,0-.0607-.2629.8082.8082,0,0,0-.1819-.3032,4.5962,4.5962,0,0,0-.5661-.4448,5.9727,5.9727,0,0,1-.7683-.6066,4.8933,4.8933,0,0,1-.465-.465,1.9951,1.9951,0,0,1-.2224-.3437c-.0607-.1011-.1618-.3032-.2426-.465a2.2,2.2,0,0,1-.1618-.6267,1.9037,1.9037,0,0,1,0-.4853,1.17,1.17,0,0,1,.1011-.283.9576.9576,0,0,1,.2426-.2629,1.1843,1.1843,0,0,1,.3437-.2021c.1011-.04.3033-.1213.4448-.1618s.3639-.0808.4852-.1011a3.2019,3.2019,0,0,1,.6268,0,6.64,6.64,0,0,1,.7076.1011c.1618.0405.4246.1011.5661.1213a2.287,2.287,0,0,0,.7683-.0808c.283-.0607.7076-.1416.93-.1618a2.7512,2.7512,0,0,1,.5863,0,2.4476,2.4476,0,0,1,.364.1011,1.8806,1.8806,0,0,1,.3841.2224,1.6446,1.6446,0,0,1,.3639.3841,1.5934,1.5934,0,0,1,.182.3842c.02.0809.04.2426.0606.3437a1.1052,1.1052,0,0,1-.02.3639,1.559,1.559,0,0,1-.1617.3841c-.0607.1214-.2426.364-.3842.5661a5.91,5.91,0,0,1-.5863.6268,9.09,9.09,0,0,1-.7481.5459c-.2426.1617-.5256.3639-.6267.4448a1.6044,1.6044,0,0,0-.2628.283.6814.6814,0,0,0-.0809.2426.2823.2823,0,0,0,.0606.182c.04.04.0809.1011.1214.1213a.5934.5934,0,0,0,.2021.0607,1.95,1.95,0,0,0,.4044-.0607,1.0845,1.0845,0,0,0,.5257-.3033c.1213-.1415.3639-.4043.5054-.5661.1617-.1617.3639-.3841.465-.465a4.6681,4.6681,0,0,1,.3842-.283,1.7673,1.7673,0,0,1,.4447-.2022,3.4744,3.4744,0,0,1,.5257-.1011,1.465,1.465,0,0,1,.4246,0,1.3023,1.3023,0,0,1,.2628.0809,2.7344,2.7344,0,0,1,.3639.2426,1.8542,1.8542,0,0,1,.3842.4852,2.4234,2.4234,0,0,1,.2022.7076A1.83,1.83,0,0,1,64.6971,24.904Z"/><path class="cls-2" d="M50.2009,24.7221a7.5141,7.5141,0,0,0,.02-.91,3.542,3.542,0,0,0-.1011-.4448,2.2437,2.2437,0,0,0-.182-.3842,4.1027,4.1027,0,0,0-.2628-.3639,1.5059,1.5059,0,0,0-.3437-.283,2.2363,2.2363,0,0,0-.3842-.182,2.869,2.869,0,0,0-.4448-.1011,1.994,1.994,0,0,0-.4852.02,1.5617,1.5617,0,0,1-.4246.02c-.0808-.02-.1617-.04-.1819-.0808a.1273.1273,0,0,1,0-.1213c.02-.0405.1011-.2224.1819-.3842a2.7852,2.7852,0,0,0,.2022-.4852c.02-.1011.0607-.2628.0809-.3639a1.261,1.261,0,0,0-.02-.3842,2.1373,2.1373,0,0,0-.1213-.3841,1.7672,1.7672,0,0,0-.2224-.3639,3.2873,3.2873,0,0,0-.3842-.3437,2.2808,2.2808,0,0,0-.4448-.2224,2.8589,2.8589,0,0,0-.4447-.1011,4.2583,4.2583,0,0,0-.7279,0,8.1762,8.1762,0,0,0-1.0918.182,2.2227,2.2227,0,0,1-.8289.0808,5.4674,5.4674,0,0,0-.6267-.1617c-.2224-.0405-.6268-.0809-.91-.1011a4.5041,4.5041,0,0,0-.7481,0c-.1213.02-.3437.0606-.4852.1011a2.2638,2.2638,0,0,0-.4448.1819,2.5452,2.5452,0,0,0-.6268.5661,1.1859,1.1859,0,0,0-.2022.3437,2.5637,2.5637,0,0,0-.1213.364c-.02.1011-.0606.283-.0808.3841a1.4964,1.4964,0,0,0,.02.4246,1.4125,1.4125,0,0,0,.1617.4043,1.8882,1.8882,0,0,0,.1618.3033.24.24,0,0,1,.02.1617c-.02.02-.0405.0607-.0809.0809a.2648.2648,0,0,1-.182,0c-.0808-.02-.2224-.04-.3437-.0606a2.5669,2.5669,0,0,0-.3841-.02,1.1458,1.1458,0,0,0-.3639.0607,1.4357,1.4357,0,0,0-.3639.1617,3.5654,3.5654,0,0,0-.3437.2427,1.36,1.36,0,0,0-.2831.3032,2.12,2.12,0,0,0-.2426.4246,3.23,3.23,0,0,0-.1618.5257c-.02.1617-.0606.465-.0808.7076a4.1217,4.1217,0,0,0,0,.7076c.02.1618.0808.4448.1213.647a2.6916,2.6916,0,0,1,0,.9907,7.8072,7.8072,0,0,0-.1213,1.0917,3.7576,3.7576,0,0,0,.02.7077,3.6376,3.6376,0,0,0,.1213.4447,2.3167,2.3167,0,0,0,.2628.4853,3.1139,3.1139,0,0,0,.3639.465,1.8224,1.8224,0,0,0,.4044.283,1.319,1.319,0,0,0,.4852.1213,4.73,4.73,0,0,0,.5459.02,2.7319,2.7319,0,0,0,.5661-.0809,4.302,4.302,0,0,0,.5459-.182,3.562,3.562,0,0,0,.7683-.6065l.2426-.2426c.283-.2831.5661-.5459.6267-.5863a2.5817,2.5817,0,0,0,.2427-.1416.2788.2788,0,0,1,.1819,0c.0405.02.0809.1416.1011.2427a4.6126,4.6126,0,0,1,0,.5458l-.3639,3.1945L43.5493,34.69l.4448-.5863a.2809.2809,0,0,0,.0606-.0809l.2022-.3033.8491-1.112-.0606-.4852v-.3235l-.2831-2.0622a3.5406,3.5406,0,0,1-.0606-.8087.8418.8418,0,0,1,.0809-.2022,1.2012,1.2012,0,0,1,.0808-.1617.0888.0888,0,0,1,.1011-.02.6766.6766,0,0,1,.1213.0607,1.6323,1.6323,0,0,0,.1618.1213,3.9373,3.9373,0,0,1,.283.3639,4.26,4.26,0,0,0,.3033.3842,2.5477,2.5477,0,0,0,.3437.2628c.1213.0809.3033.2022.4448.283a3.7117,3.7117,0,0,0,.4852.2629,1.5532,1.5532,0,0,0,.4852.1213,3.7406,3.7406,0,0,0,.4853.02,1.8713,1.8713,0,0,0,.4852-.0809,4.3291,4.3291,0,0,0,.4448-.2021c.1213-.0809.283-.2022.3841-.2831a3.2859,3.2859,0,0,0,.3437-.3841,4.8037,4.8037,0,0,0,.2426-.4448c.0405-.1213.1011-.2831.1213-.3842a2.887,2.887,0,0,0,.0607-.5256c0-.182-.02-.4448-.02-.5863a4.2852,4.2852,0,0,1-.0405-.4853,1.5118,1.5118,0,0,1-.02-.2224.8339.8339,0,0,1-.02-.1819,1.7477,1.7477,0,0,1-.02-.3033,3.74,3.74,0,0,1,.0606-.5257C50.14,25.5712,50.1807,25.086,50.2009,24.7221Zm-.5458.1819a3.5114,3.5114,0,0,1-.0809.5459c-.02.1213-.0809.3235-.1011.465a3.2321,3.2321,0,0,0,0,.6268c.02.2022.0809.5256.1213.7278a2.4333,2.4333,0,0,1,.02.7683,2.4011,2.4011,0,0,1-.1213.5863,2.8661,2.8661,0,0,1-.1617.3639,3.0528,3.0528,0,0,1-.2022.3437,3.3617,3.3617,0,0,1-.2831.2629,1.528,1.528,0,0,1-.3639.1819,1.5744,1.5744,0,0,1-.4448.0809,1.5007,1.5007,0,0,1-.7885-.2224,4.2756,4.2756,0,0,1-.4852-.3639c-.1617-.1415-.465-.4448-.6672-.6672s-.4246-.4852-.5257-.5863c-.0808-.1011-.2021-.2224-.2628-.2831a1.2142,1.2142,0,0,0-.2628-.1819,1.7028,1.7028,0,0,0-.3437-.1011.4866.4866,0,0,0-.3033.04,1.0893,1.0893,0,0,0-.2426.182.4535.4535,0,0,0-.1213.283,6.054,6.054,0,0,0,.0607.89l.2223,1.7994.1214,1.2535a2.1357,2.1357,0,0,1-.3235,1.0109l-.0607.0809a.4752.4752,0,0,1-.8289,0l-.0607-.0809a2.4775,2.4775,0,0,1-.3841-1.2939l.1415-2.77a7.8333,7.8333,0,0,0,0-.9907.9613.9613,0,0,0-.0809-.3639.3187.3187,0,0,0-.1617-.1011.7592.7592,0,0,0-.2022-.02.39.39,0,0,0-.2022.0607,2.6476,2.6476,0,0,0-.4245.3841c-.1618.182-.4044.4448-.5257.5661l-.4852.4852a7.3762,7.3762,0,0,1-.6268.4853,3.1165,3.1165,0,0,1-.5459.3032c-.1213.04-.283.1011-.3841.1213a2.27,2.27,0,0,1-.3639.0607,1.0253,1.0253,0,0,1-.3437-.0607,1.1923,1.1923,0,0,1-.2831-.1213,1.0889,1.0889,0,0,1-.2426-.1819,1.3,1.3,0,0,1-.2022-.2629,1.5164,1.5164,0,0,1-.1617-.3639c-.02-.1213-.0809-.4448-.1011-.7278a5.0481,5.0481,0,0,1-.02-.95,6.1288,6.1288,0,0,1,.0808-.7278,2.2747,2.2747,0,0,0,0-.5257c-.02-.1213-.0606-.4852-.0808-.8087s-.02-.6874-.02-.8289a2.233,2.233,0,0,1,.101-.5863,2.1,2.1,0,0,1,.2022-.4651,2.9008,2.9008,0,0,1,.2426-.2628.9965.9965,0,0,1,.3033-.2022,2.4263,2.4263,0,0,1,.4448-.1011,1.9481,1.9481,0,0,1,.4852,0,3.542,3.542,0,0,1,.4448.1011,2.315,2.315,0,0,1,.3842.2022c.101.0809.2426.2022.3437.2831.0808.0808.2628.3032.4245.465.1416.1617.3842.4245.5257.5661a1.6646,1.6646,0,0,0,.4852.3437,1.6041,1.6041,0,0,0,.3437.0808.39.39,0,0,0,.2022-.0606A1.13,1.13,0,0,0,42.64,24.54c.04-.02.0606-.1011.0606-.1617a.6988.6988,0,0,0-.0606-.2629.8086.8086,0,0,0-.182-.3032,4.5962,4.5962,0,0,0-.5661-.4448,5.9866,5.9866,0,0,1-.7683-.6066,4.9178,4.9178,0,0,1-.465-.465,2.0965,2.0965,0,0,1-.2426-.3437c-.0607-.1011-.1617-.3032-.2426-.465a2.2032,2.2032,0,0,1-.1618-.6267,1.9037,1.9037,0,0,1,0-.4853,1.174,1.174,0,0,1,.1011-.283.9608.9608,0,0,1,.2426-.2629,1.1848,1.1848,0,0,1,.3438-.2021c.101-.04.3032-.1213.4447-.1618s.364-.0808.4853-.1011a3.2009,3.2009,0,0,1,.6267,0,6.64,6.64,0,0,1,.7076.1011c.1618.0405.4246.1011.5661.1213a2.2866,2.2866,0,0,0,.7683-.0808c.2831-.0607.7077-.1416.93-.1618a2.7523,2.7523,0,0,1,.5864,0,2.4464,2.4464,0,0,1,.3639.1011,1.8779,1.8779,0,0,1,.3841.2224,1.645,1.645,0,0,1,.364.3841,1.5963,1.5963,0,0,1,.1819.3842c.02.0809.04.2426.0607.3437a1.1026,1.1026,0,0,1-.02.3639,1.5552,1.5552,0,0,1-.1617.3841c-.0606.1214-.2426.364-.3841.5661a5.9209,5.9209,0,0,1-.5864.6268,9.104,9.104,0,0,1-.748.5459c-.2426.1617-.5257.3639-.6268.4448a1.6044,1.6044,0,0,0-.2628.283.6834.6834,0,0,0-.0809.2426.2819.2819,0,0,0,.0607.182.3487.3487,0,0,0,.1213.1213.5933.5933,0,0,0,.2022.0607,2.31,2.31,0,0,0,.4245-.0607,1.0836,1.0836,0,0,0,.5257-.3033c.1213-.1415.3639-.4043.5257-.5661s.3639-.3841.465-.465a4.667,4.667,0,0,1,.3841-.283,1.7679,1.7679,0,0,1,.4448-.2022,3.7262,3.7262,0,0,1,.5055-.1011,1.4643,1.4643,0,0,1,.4245,0,1.3032,1.3032,0,0,1,.2629.0809,1.4046,1.4046,0,0,1,.3639.2426,1.8519,1.8519,0,0,1,.3841.4852,2.4173,2.4173,0,0,1,.2022.7076A2.6608,2.6608,0,0,1,49.6551,24.904Z"/><path class="cls-2" d="M35.1791,24.7221a7.53,7.53,0,0,0,.02-.91,3.5245,3.5245,0,0,0-.1011-.4448,2.2363,2.2363,0,0,0-.182-.3842,4.0825,4.0825,0,0,0-.2628-.3639,1.5059,1.5059,0,0,0-.3437-.283,3.2853,3.2853,0,0,0-.3841-.182,2.8717,2.8717,0,0,0-.4448-.1011,1.995,1.995,0,0,0-.4853.02,1.5609,1.5609,0,0,1-.4245.02c-.0809-.02-.1618-.04-.182-.0808a.1273.1273,0,0,1,0-.1213c.02-.0405.1011-.2224.182-.3842a2.801,2.801,0,0,0,.2022-.4852c.02-.1011.0606-.2628.0808-.3639a1.261,1.261,0,0,0-.02-.3842,2.1373,2.1373,0,0,0-.1213-.3841,1.2677,1.2677,0,0,0-.2426-.3639,3.2792,3.2792,0,0,0-.3842-.3437,2.28,2.28,0,0,0-.4447-.2224,2.8628,2.8628,0,0,0-.4448-.1011,4.2581,4.2581,0,0,0-.7279,0,8.1723,8.1723,0,0,0-1.0917.182,2.2234,2.2234,0,0,1-.829.0808,5.4619,5.4619,0,0,0-.6267-.1617c-.2224-.0405-.6268-.0809-.91-.1011a4.5041,4.5041,0,0,0-.7481,0c-.1213.02-.3437.0606-.4852.1011a2.2663,2.2663,0,0,0-.4448.1819,2.2094,2.2094,0,0,0-.3437.2629,3.8852,3.8852,0,0,0-.2831.3032,1.1882,1.1882,0,0,0-.2022.3437,2.5765,2.5765,0,0,0-.1213.364c-.02.1011-.0606.283-.0808.3841a1.5,1.5,0,0,0,.02.4246,1.4125,1.4125,0,0,0,.1617.4043,1.8882,1.8882,0,0,0,.1618.3033.24.24,0,0,1,.02.1617c-.02.02-.04.0607-.0809.0809a.2645.2645,0,0,1-.1819,0c-.0809-.02-.2224-.04-.3437-.0606a2.5689,2.5689,0,0,0-.3842-.02,1.1458,1.1458,0,0,0-.3639.0607,1.4373,1.4373,0,0,0-.3639.1617,2.097,2.097,0,0,0-.3437.2427,1.36,1.36,0,0,0-.2831.3032,2.125,2.125,0,0,0-.2426.4246,3.22,3.22,0,0,0-.1617.5257c-.02.1617-.0607.465-.0809.7076a4.1217,4.1217,0,0,0,0,.7076c.02.1618.0809.4448.1213.647a2.6916,2.6916,0,0,1,0,.9907,7.8072,7.8072,0,0,0-.1213,1.0917,3.7576,3.7576,0,0,0,.02.7077,3.6376,3.6376,0,0,0,.1213.4447,2.3238,2.3238,0,0,0,.2628.4853,3.1075,3.1075,0,0,0,.364.465,1.5565,1.5565,0,0,0,.4245.283,1.319,1.319,0,0,0,.4853.1213,4.7283,4.7283,0,0,0,.5459.02,2.7339,2.7339,0,0,0,.5661-.0809,4.3058,4.3058,0,0,0,.5458-.182,3.5571,3.5571,0,0,0,.7683-.6065l.2426-.2426c.2831-.2831.5661-.5459.6268-.5863a2.5793,2.5793,0,0,0,.2426-.1416.2791.2791,0,0,1,.182,0c.04.02.0808.1416.101.2427a4.59,4.59,0,0,1,0,.5458l-.3639,3.1945L28.5274,34.69l.4448-.5863a.2809.2809,0,0,0,.0606-.0809l.2022-.3033.829-1.112-.0607-.4852v-.3235l-.283-2.0622a3.5369,3.5369,0,0,1-.0607-.8087.8418.8418,0,0,1,.0809-.2022,1.2012,1.2012,0,0,1,.0808-.1617.0889.0889,0,0,1,.1011-.02.6766.6766,0,0,1,.1213.0607,1.6446,1.6446,0,0,0,.1618.1213,3.9373,3.9373,0,0,1,.283.3639,4.26,4.26,0,0,0,.3033.3842,2.5477,2.5477,0,0,0,.3437.2628c.1213.0809.3033.2022.4448.283a3.7117,3.7117,0,0,0,.4852.2629,1.5531,1.5531,0,0,0,.4853.1213,3.74,3.74,0,0,0,.4852.02,1.8713,1.8713,0,0,0,.4852-.0809,4.3291,4.3291,0,0,0,.4448-.2021c.1213-.0809.283-.2022.3841-.2831a2.1117,2.1117,0,0,0,.3437-.3841,4.8288,4.8288,0,0,0,.2427-.4448c.04-.1213.101-.2831.1213-.3842a2.8976,2.8976,0,0,0,.0606-.5256c0-.182-.02-.4448-.02-.5863a4.284,4.284,0,0,1-.04-.4853,1.5046,1.5046,0,0,1-.02-.2224.8339.8339,0,0,1-.02-.1819,1.7477,1.7477,0,0,1-.02-.3033,3.7293,3.7293,0,0,1,.0607-.5257C35.0982,25.5712,35.1386,25.086,35.1791,24.7221Zm-.5459.1819a3.4876,3.4876,0,0,1-.0809.5459c-.02.1213-.0809.3235-.1011.465a3.2321,3.2321,0,0,0,0,.6268c.02.2022.0809.5256.1213.7278a2.4333,2.4333,0,0,1,.02.7683,4.0452,4.0452,0,0,1-.1214.5863,2.8521,2.8521,0,0,1-.1617.3639,3.0228,3.0228,0,0,1-.2022.3437,3.361,3.361,0,0,1-.283.2629,1.53,1.53,0,0,1-.3639.1819,1.5757,1.5757,0,0,1-.4448.0809,1.5,1.5,0,0,1-.7885-.2224,4.2753,4.2753,0,0,1-.4853-.3639,6.9114,6.9114,0,0,1-.6672-.6672c-.2021-.2224-.4245-.4852-.5054-.5863s-.2022-.2224-.2628-.2831a1.2173,1.2173,0,0,0-.2629-.1819,1.7009,1.7009,0,0,0-.3437-.1011.4862.4862,0,0,0-.3032.04.6731.6731,0,0,0-.2224.182.4535.4535,0,0,0-.1213.283,6.0493,6.0493,0,0,0,.0606.89l.2224,1.7994.1213,1.2535a2.1335,2.1335,0,0,1-.3235,1.0109l-.0606.0809a.4754.4754,0,0,1-.829,0l-.0606-.0809A2.4766,2.4766,0,0,1,27.8,31.6164l.1415-2.77a7.8333,7.8333,0,0,0,0-.9907.9633.9633,0,0,0-.0809-.3639.3192.3192,0,0,0-.1617-.1011.76.76,0,0,0-.2022-.02.39.39,0,0,0-.2022.0607,2.6512,2.6512,0,0,0-.4246.3841c-.1617.182-.4043.4448-.5256.5661l-.4853.4852a5.1329,5.1329,0,0,1-.6267.4853,3.12,3.12,0,0,1-.5459.3032,2.7971,2.7971,0,0,1-.3841.1213,2.2707,2.2707,0,0,1-.364.0607,1.0258,1.0258,0,0,1-.3437-.0607,1.1915,1.1915,0,0,1-.283-.1213,1.0866,1.0866,0,0,1-.2426-.1819,2.9758,2.9758,0,0,1-.2022-.2629,1.5125,1.5125,0,0,1-.1617-.3639c-.02-.1213-.0809-.4448-.1011-.7278a7.6,7.6,0,0,1-.02-.95,6.1477,6.1477,0,0,1,.0809-.7278,2.2859,2.2859,0,0,0,0-.5257c-.02-.1213-.0606-.4852-.0809-.8087s-.02-.6874-.02-.8289a2.2335,2.2335,0,0,1,.1011-.5863,3.8688,3.8688,0,0,1,.2022-.4651c.0606-.0808.1617-.1819.2224-.2628a.9965.9965,0,0,1,.3033-.2022,2.4225,2.4225,0,0,1,.4448-.1011,1.9481,1.9481,0,0,1,.4852,0,3.542,3.542,0,0,1,.4448.1011,2.314,2.314,0,0,1,.3841.2022c.1011.0809.2426.2022.3437.2831.0809.0808.2628.3032.4246.465.1415.1617.3841.4246.5257.5661a1.6646,1.6646,0,0,0,.4852.3437,1.6042,1.6042,0,0,0,.3437.0809.3908.3908,0,0,0,.2022-.0607,1.1289,1.1289,0,0,0,.1617-.1011.3014.3014,0,0,0,.0607-.1617.6991.6991,0,0,0-.0607-.2629.8073.8073,0,0,0-.182-.3032,4.58,4.58,0,0,0-.5661-.4448,5.9784,5.9784,0,0,1-.7682-.6066,4.8933,4.8933,0,0,1-.465-.465,2.097,2.097,0,0,1-.2427-.3437c-.0606-.1011-.1617-.3032-.2426-.465a2.2031,2.2031,0,0,1-.1617-.6267,1.9037,1.9037,0,0,1,0-.4853,1.1655,1.1655,0,0,1,.1011-.283.9576.9576,0,0,1,.2426-.2629,1.1843,1.1843,0,0,1,.3437-.2021c.1011-.04.3033-.1213.4448-.1618s.3639-.0808.4852-.1011a3.2019,3.2019,0,0,1,.6268,0,6.6441,6.6441,0,0,1,.7076.1011c.1617.0405.4246.1011.5661.1213a2.287,2.287,0,0,0,.7683-.0808c.283-.0607.7076-.1416.93-.1618a2.9746,2.9746,0,0,1,.6065,0,2.4476,2.4476,0,0,1,.364.1011,1.8806,1.8806,0,0,1,.3841.2224,1.6446,1.6446,0,0,1,.3639.3841,1.5934,1.5934,0,0,1,.182.3842c.02.0809.04.2426.0606.3437a1.1052,1.1052,0,0,1-.02.3639,1.559,1.559,0,0,1-.1617.3841,4.0028,4.0028,0,0,1-.3842.5661,5.91,5.91,0,0,1-.5863.6268c-.1819.1415-.5054.3841-.748.5459s-.5257.3639-.6268.4448a1.6044,1.6044,0,0,0-.2628.283.6814.6814,0,0,0-.0809.2426.2823.2823,0,0,0,.0606.182.349.349,0,0,0,.1214.1213.5934.5934,0,0,0,.2021.0607,2.1046,2.1046,0,0,0,.4246-.0607,1.0841,1.0841,0,0,0,.5257-.3033c.1213-.1415.3639-.4043.5256-.5661s.364-.3841.4651-.465a4.65,4.65,0,0,1,.3841-.283,1.7679,1.7679,0,0,1,.4448-.2022,3.473,3.473,0,0,1,.5256-.1011,1.4649,1.4649,0,0,1,.4246,0,1.8672,1.8672,0,0,1,.2629.0809,1.4046,1.4046,0,0,1,.3639.2426,1.8539,1.8539,0,0,1,.3841.4852,2.4173,2.4173,0,0,1,.2022.7076Z"/><path class="cls-2" d="M20.137,24.7221a7.53,7.53,0,0,0,.02-.91,3.5245,3.5245,0,0,0-.1011-.4448,2.2434,2.2434,0,0,0-.1819-.3842,4.1043,4.1043,0,0,0-.2629-.3639,1.5038,1.5038,0,0,0-.3437-.283,2.2352,2.2352,0,0,0-.3841-.182,2.8717,2.8717,0,0,0-.4448-.1011,1.994,1.994,0,0,0-.4852.02,1.5618,1.5618,0,0,1-.4246.02c-.0809-.02-.1618-.04-.182-.0808a.1273.1273,0,0,1,0-.1213c.02-.0405.1011-.2224.182-.3842a2.7931,2.7931,0,0,0,.2022-.4852c.02-.1011.0606-.2628.0808-.3639a1.2578,1.2578,0,0,0-.02-.3842A2.1373,2.1373,0,0,0,17.67,19.89a1.2677,1.2677,0,0,0-.2426-.3639,3.2859,3.2859,0,0,0-.3841-.3437,2.2836,2.2836,0,0,0-.4448-.2224,2.86,2.86,0,0,0-.4448-.1011,4.2581,4.2581,0,0,0-.7279,0,8.1723,8.1723,0,0,0-1.0917.182,2.2234,2.2234,0,0,1-.829.0808,5.4619,5.4619,0,0,0-.6267-.1617c-.2224-.0405-.6268-.0809-.91-.1011a4.5041,4.5041,0,0,0-.7481,0c-.1213.02-.3437.0606-.4852.1011a2.2663,2.2663,0,0,0-.4448.1819,3.8914,3.8914,0,0,0-.3437.2629,3.8852,3.8852,0,0,0-.2831.3032,1.1856,1.1856,0,0,0-.2021.3437,2.5511,2.5511,0,0,0-.1213.364c-.02.1011-.0607.283-.0809.3841a1.5,1.5,0,0,0,.02.4246,1.4125,1.4125,0,0,0,.1617.4043,1.8882,1.8882,0,0,0,.1618.3033.24.24,0,0,1,.02.1617l-.0809.0809a.2734.2734,0,0,1-.1819,0c-.0809-.02-.2224-.04-.3437-.0606a2.5682,2.5682,0,0,0-.3842-.02,1.1458,1.1458,0,0,0-.3639.0607,1.4373,1.4373,0,0,0-.3639.1617,2.1012,2.1012,0,0,0-.3437.2427,1.36,1.36,0,0,0-.2831.3032,2.13,2.13,0,0,0-.2426.4246,3.23,3.23,0,0,0-.1617.5257,5.7259,5.7259,0,0,0-.0809.7076,4.1217,4.1217,0,0,0,0,.7076c.02.1618.0809.4448.1213.647a2.6873,2.6873,0,0,1,0,.9907,7.8223,7.8223,0,0,0-.1213,1.0917,3.7576,3.7576,0,0,0,.02.7077,3.6376,3.6376,0,0,0,.1213.4447,2.3221,2.3221,0,0,0,.2629.4853,3.1009,3.1009,0,0,0,.3639.465,1.8218,1.8218,0,0,0,.4043.283,1.319,1.319,0,0,0,.4853.1213,4.7274,4.7274,0,0,0,.5458.02,2.55,2.55,0,0,0,.5661-.0809,4.302,4.302,0,0,0,.5459-.182,3.5571,3.5571,0,0,0,.7683-.6065l.2426-.2426c.2831-.2831.5661-.5459.6268-.5863a2.5922,2.5922,0,0,0,.2426-.1416.2791.2791,0,0,1,.182,0c.04.02.0808.1416.101.2426,0,.0809,0,.2831-.02.5459l-.3639,3.1945L13.4449,34.69l.4448-.5863a.2809.2809,0,0,0,.0606-.0809l.2022-.3033.8289-1.112-.0606-.4852v-.3235l-.2831-2.0622a3.5406,3.5406,0,0,1-.0606-.8087.8455.8455,0,0,1,.0808-.2022,1.2126,1.2126,0,0,1,.0809-.1617.0888.0888,0,0,1,.1011-.02.68.68,0,0,1,.1213.0607,1.6323,1.6323,0,0,0,.1618.1213,3.9373,3.9373,0,0,1,.283.3639,4.26,4.26,0,0,0,.3033.3842,2.5414,2.5414,0,0,0,.3437.2628,4.2391,4.2391,0,0,0,.4448.283,3.7117,3.7117,0,0,0,.4852.2629,1.5532,1.5532,0,0,0,.4852.1213,3.7406,3.7406,0,0,0,.4853.02,1.8713,1.8713,0,0,0,.4852-.0809,4.3291,4.3291,0,0,0,.4448-.2021c.1213-.0809.283-.2022.3841-.2831a2.1117,2.1117,0,0,0,.3437-.3841,4.8037,4.8037,0,0,0,.2426-.4448c.0405-.1213.1011-.2831.1213-.3842a2.8882,2.8882,0,0,0,.0607-.5256c0-.182-.02-.4448-.02-.5863-.02-.1416-.04-.364-.0607-.4853a1.5118,1.5118,0,0,1-.02-.2224.8339.8339,0,0,1-.02-.1819,1.7477,1.7477,0,0,1-.02-.3033,3.74,3.74,0,0,1,.0606-.5257A4.0912,4.0912,0,0,0,20.137,24.7221Zm-.5459.1819c-.02.182-.0606.4246-.0809.5459s-.0808.3235-.1011.465a3.2321,3.2321,0,0,0,0,.6268c.02.2022.0809.5256.1214.7278a2.4363,2.4363,0,0,1,.02.7683,2.4059,2.4059,0,0,1-.1213.5863,2.867,2.867,0,0,1-.1618.3639,3.0228,3.0228,0,0,1-.2022.3437,3.3457,3.3457,0,0,1-.283.2629,1.53,1.53,0,0,1-.3639.1819,1.5751,1.5751,0,0,1-.4448.0809,1.5,1.5,0,0,1-.7885-.2224,4.2667,4.2667,0,0,1-.4852-.3639c-.1618-.1415-.4651-.4448-.6672-.6672s-.4246-.4852-.5257-.5863c-.0809-.1011-.2022-.2224-.2628-.2831a1.2173,1.2173,0,0,0-.2629-.1819,1.7009,1.7009,0,0,0-.3437-.1011.4862.4862,0,0,0-.3032.04,1.09,1.09,0,0,0-.2427.182.454.454,0,0,0-.1213.283,6.0687,6.0687,0,0,0,.0607.89l.2224,1.7994.1213,1.2535a2.3827,2.3827,0,0,1-.3235,1.0109l-.0606.0809a.4753.4753,0,0,1-.829,0l-.0606-.0809a2.4776,2.4776,0,0,1-.3842-1.2939l.1416-2.77c.02-.3841.02-.8491.02-.9907a.9633.9633,0,0,0-.0809-.3639.3192.3192,0,0,0-.1617-.1011.6889.6889,0,0,0-.2022-.02.39.39,0,0,0-.2022.0607,2.6512,2.6512,0,0,0-.4246.3841c-.1617.182-.4043.4448-.5256.5661l-.4853.4852a7.3746,7.3746,0,0,1-.6267.4853,3.12,3.12,0,0,1-.5459.3032c-.1213.04-.283.1011-.3841.1213a2.2707,2.2707,0,0,1-.364.0607,1.0253,1.0253,0,0,1-.3437-.0607,1.1915,1.1915,0,0,1-.283-.1213,1.0866,1.0866,0,0,1-.2426-.1819,1.2961,1.2961,0,0,1-.2022-.2629,1.5125,1.5125,0,0,1-.1617-.3639c-.02-.1213-.0809-.4448-.1011-.7278a7.6,7.6,0,0,1-.02-.95,6.1477,6.1477,0,0,1,.0809-.7278,2.2859,2.2859,0,0,0,0-.5257c-.02-.1213-.0606-.4852-.0809-.8087s-.02-.6874-.02-.8289a2.2335,2.2335,0,0,1,.1011-.5863,2.0948,2.0948,0,0,1,.2022-.4651,2.8721,2.8721,0,0,1,.2426-.2628.9965.9965,0,0,1,.3033-.2022,2.4244,2.4244,0,0,1,.4448-.1011,1.9481,1.9481,0,0,1,.4852,0,3.542,3.542,0,0,1,.4448.1011,2.314,2.314,0,0,1,.3841.2022c.1011.0809.2426.2022.3437.2831.0809.0808.2629.3032.4246.465.1415.1617.3841.4246.5055.5661a1.6646,1.6646,0,0,0,.4852.3437,1.6042,1.6042,0,0,0,.3437.0809.3908.3908,0,0,0,.2022-.0607,1.1289,1.1289,0,0,0,.1617-.1011.3014.3014,0,0,0,.0607-.1617.6991.6991,0,0,0-.0607-.2629.8073.8073,0,0,0-.182-.3032,4.58,4.58,0,0,0-.5661-.4448,5.9784,5.9784,0,0,1-.7682-.6066,4.8933,4.8933,0,0,1-.465-.465,1.2489,1.2489,0,0,1-.2224-.3437c-.0607-.1011-.1618-.3032-.2427-.465a2.2031,2.2031,0,0,1-.1617-.6267,1.9037,1.9037,0,0,1,0-.4853,1.17,1.17,0,0,1,.1011-.283.9576.9576,0,0,1,.2426-.2629,1.1843,1.1843,0,0,1,.3437-.2021c.1011-.04.3033-.1213.4448-.1618s.3639-.0808.4852-.1011a3.2019,3.2019,0,0,1,.6268,0,6.24,6.24,0,0,1,.6874.1011c.1617.0405.4246.1011.5661.1213a2.287,2.287,0,0,0,.7683-.0808c.283-.0607.7076-.1416.93-.1618a2.7514,2.7514,0,0,1,.5863,0,2.4464,2.4464,0,0,1,.3639.1011,2.6289,2.6289,0,0,1,.3842.2224,1.6446,1.6446,0,0,1,.3639.3841,1.5972,1.5972,0,0,1,.182.3842c.02.0809.04.2426.0606.3437a1.1052,1.1052,0,0,1-.02.3639,1.5556,1.5556,0,0,1-.1618.3841,3.9919,3.9919,0,0,1-.3841.5661,5.9205,5.9205,0,0,1-.5863.6268,9.1243,9.1243,0,0,1-.7481.5459c-.2426.1617-.5256.3639-.6267.4448a1.6093,1.6093,0,0,0-.2629.283.6829.6829,0,0,0-.0808.2426.2823.2823,0,0,0,.0606.182.3487.3487,0,0,0,.1213.1213.5947.5947,0,0,0,.2022.0607,2.1056,2.1056,0,0,0,.4246-.0607,1.0845,1.0845,0,0,0,.5257-.3033c.1213-.1415.3639-.4043.5256-.5661s.3639-.3841.465-.465a2.6924,2.6924,0,0,1,.3842-.283,1.7663,1.7663,0,0,1,.4448-.2022,3.473,3.473,0,0,1,.5256-.1011,1.465,1.465,0,0,1,.4246,0A1.3,1.3,0,0,1,18.6,22.7a1.4048,1.4048,0,0,1,.364.2426,1.8539,1.8539,0,0,1,.3841.4852,2.417,2.417,0,0,1,.2022.7077A3.4928,3.4928,0,0,1,19.5911,24.904Z"/><path class="cls-3" d="M72.5012,20.7392l-1.3343-1.84a95.1216,95.1216,0,0,0-35.078-6.53A100.0638,100.0638,0,0,0,0,19.2228a29.8907,29.8907,0,0,1,2.8305,7.3593,36.976,36.976,0,0,1,1.3142,9.7046l.0606,25.5958S3.0125,72.4766,14.759,83.03c4.67,4.2053,13.081,6.5708,19.672,7.0762C44.4186,90.8951,52.85,87.8018,58.45,83.03,67.75,75.105,68.4981,66.25,68.4981,58.6476V36.4484A33.197,33.197,0,0,1,69.509,28.22,28.9486,28.9486,0,0,1,72.5012,20.7392ZM63.3425,71.4455c-3.4168,7.2987-11.2006,15.79-27.2334,15.79-16.4169,0-24.2008-8.7544-27.5165-16.0732A24.8729,24.8729,0,0,1,6.308,61.4579L6.1664,36.4686H65.93l-.1011,24.6052A26.1446,26.1446,0,0,1,63.3425,71.4455ZM67.5276,26.946a29.6974,29.6974,0,0,0-1.3141,8.2894l-60.4312-.02A44.0765,44.0765,0,0,0,4.61,26.6225a29.7381,29.7381,0,0,0-2.3251-6.47s13.7077-6.2877,33.501-6.2877a91.5737,91.5737,0,0,1,34.1278,6.409A31.7576,31.7576,0,0,0,67.5276,26.946Z"/><path class="cls-3" d="M50.14,67.8265c-4.2053-2.79-5.9643-4.0031-6.7326-4.4883s-2.5676-1.4759-3.1944-2.77a20.1215,20.1215,0,0,1-1.0109-4.5894,2.73,2.73,0,0,0-.2426-.829,1.7493,1.7493,0,0,0,.7076.1011A8.9294,8.9294,0,0,0,43.63,53.25c1.7994-1.4153,2.7294-3.3562,3.0934-3.3966a.9719.9719,0,0,1,.6469.1819s2.2442,1.2535,4.4075,2.75,3.2349,2.2644,5.9036,3.8413,7.0763,4.0032,7.0763,4.0032-4.084-5.9238-6.6719-9.3407-5.9238-7.238-5.9238-7.238a22.2866,22.2866,0,0,0-5.1151-4.61,6.4156,6.4156,0,0,0-3.2753-1.1727,4.7287,4.7287,0,0,0-3.6393,1.294l-2.2239,2.3048s-1.6579,2.1027-3.4573,1.9814-3.2348-2.4868-4.0435-3.154a6.5422,6.5422,0,0,0-2.9721-1.4961,4.7152,4.7152,0,0,0-2.972.0606,3.6041,3.6041,0,0,0-1.5972,1.3748c-.2224.3437-1.4961.6066-1.5568.89s.6268,0,1.1524.5257a9.0656,9.0656,0,0,1,1.1727,2.0218,11.4165,11.4165,0,0,1,.6267,2.9316c.0607,1.395-2.1229,1.5769-3.3157,1.5567a32.4484,32.4484,0,0,1-3.2753-.4245,7.3149,7.3149,0,0,0-3.5583.3234,3.7728,3.7728,0,0,0-2.5677,3.3966c-.2628,1.7388.4246,5.56.8289,7.3593.4044,1.82.6874,3.1742,1.1727,4.9534s1.0917,3.8212,1.678,5.7015,1.1929,3.7807,1.7792,5.3981,2.2644,6.2069,2.2644,6.2069.2022-7.6019.2628-9.1587c.0809-1.577.1416-2.8305.182-4.3064.04-1.4557-.04-3.1338.02-4.9736s.0607-2.6485.5459-2.6485.5661.1819,1.5568.3235a9.96,9.96,0,0,0,2.9114-.364c1.2535-.283,2.9113-.7884,2.9113-.7884A19.7678,19.7678,0,0,1,24.7062,54.26a9.26,9.26,0,0,1-.4852-3.9627s.2022.97.5054,2.1026a15.75,15.75,0,0,0,1.86,4.5288,17.8042,17.8042,0,0,0,3.9222,4.4682,16.601,16.601,0,0,1,3.518,3.4774c1.0715,1.6781,1.7993,5.8834,1.7993,5.8834s1.2535,4.9736,1.88,7.44c.647,2.4464,1.9813,7.7232,2.4059,7.5817s-.3235-6.9954-.2022-8.8554a11.73,11.73,0,0,1,1.1727-5.2567c.95-1.7387,2.042-2.1633,3.9627-2.1835a19.696,19.696,0,0,1,7.1571,1.6781c2.8507,1.112,5.9845,3.0933,6.2473,2.5677C58.6924,73.1843,54.3456,70.5964,50.14,67.8265ZM25.3532,39.845a.3859.3859,0,0,1,.2022-.0808h.2022s-.0607.5863.4852.6065c.5459.04.647-.5863.647-.5863a.909.909,0,0,1,.2628-.02,1.8325,1.8325,0,0,1,.2224.1213,1.0506,1.0506,0,0,1-1.1524.95C25.1915,40.7144,25.3532,39.845,25.3532,39.845ZM39.4855,66.6539c-.2831.3437-2.224-1.0311-4.3266-2.7092,0,0-4.8523-3.68-6.5911-6.3484a14.8371,14.8371,0,0,1-2.4261-5.9036c-.2628-1.4153-.1617-1.9207.2426-2.3655.3841-.465,1.4961-.0809,3.2146-1.0918,1.7388-1.0109,2.3251-2.7294,2.9316-2.6687.5864.0606,1.86,1.5972,3.1945,4.65,1.3546,3.0529,1.9207,6.45,2.6081,9.26C39.0407,62.3071,39.7887,66.31,39.4855,66.6539Z"/><path class="cls-4" d="M145.4675,75.2465c-.8087.283-1.4557.5054-2.042.7278s-1.0918.2831-1.4557.4448a35.465,35.465,0,0,1-5.7419,1.2333,62.6291,62.6291,0,0,1-6.3282.3639,25.6751,25.6751,0,0,1-10.1089-1.9611,24.5227,24.5227,0,0,1-8.1478-5.2364A25.5507,25.5507,0,0,1,106.2651,43.08a23.8014,23.8014,0,0,1,13.3235-13.0405,28.4973,28.4973,0,0,1,10.109-1.82,48.6346,48.6346,0,0,1,5.3173.283,31.02,31.02,0,0,1,4.65.7885,16.9538,16.9538,0,0,1,2.77.95c.7279.364,1.7388.8694,3.0529,1.5973l-2.2644,4.9533a16.8524,16.8524,0,0,0-1.5365-.8087c-.364-.2224-.7279-.3639-1.0109-.5054a24.8334,24.8334,0,0,0-4.8119-1.3748,28.1517,28.1517,0,0,0-5.6-.5055,22.6919,22.6919,0,0,0-8.5926,1.4557,15.9444,15.9444,0,0,0-6.2675,4.65,18.1993,18.1993,0,0,0-3.4977,5.9643,19.4773,19.4773,0,0,0-1.2333,6.8336,19.8486,19.8486,0,0,0,1.5972,8.0872,18.7,18.7,0,0,0,4.367,6.3281,20.1666,20.1666,0,0,0,6.6315,4.1447,22.3048,22.3048,0,0,0,8.2893,1.5366,25.9908,25.9908,0,0,0,3.4168-.2224c1.0918-.1416,2.5475-.4448,4.5086-.8087V55.5543h5.9643l.02,19.6922Z"/><path class="cls-4" d="M178.4832,77.0661l4.9534-14.1929H202.866l4.9533,14.1929h6.4091L196.3963,27.6334h-6.4091L173.8938,72.0319H159.8222V29.0285h-5.9643V77.0661Zm6.8337-19.6518,7.8647-21.9768,7.7839,21.9768Z"/><path class="cls-4" d="M259.5569,52.8249a26.8541,26.8541,0,0,1-1.6781,9.24,24.75,24.75,0,0,1-4.8119,8.0062,18.6514,18.6514,0,0,1-7.42,5.378,28.01,28.01,0,0,1-10.3313,1.5972H219.384V29.0285h16.0125a25.0283,25.0283,0,0,1,9.6844,1.82,22.9217,22.9217,0,0,1,7.7232,4.9534,23.3593,23.3593,0,0,1,5.014,7.5008A25.7261,25.7261,0,0,1,259.5569,52.8249Zm-6.2676-.0607a18.8978,18.8978,0,0,0-1.4557-7.42,18.544,18.544,0,0,0-3.9222-5.9643,19.1175,19.1175,0,0,0-5.9643-3.9222,20.9662,20.9662,0,0,0-7.5008-1.3749h-9.0981V72.0723h9.0981a25.45,25.45,0,0,0,7.7232-1.0109,12.5425,12.5425,0,0,0,5.2364-3.3359,15.6824,15.6824,0,0,0,2.4059-3.2147,22.9687,22.9687,0,0,0,1.9-3.72,37.9721,37.9721,0,0,0,1.1727-4.0031A21.7176,21.7176,0,0,0,253.2893,52.7642Z"/><path class="cls-4" d="M293.9879,32.2431l-2.77,4.9534c-1.2332-.7279-2.2643-1.2333-2.9113-1.5972a9.3656,9.3656,0,0,0-2.1027-.8694,31.0383,31.0383,0,0,0-3.2753-.7278,19.0662,19.0662,0,0,0-3.3561-.2831,10.9481,10.9481,0,0,0-6.6921,1.9005,5.6871,5.6871,0,0,0-2.4666,4.8725,5.3,5.3,0,0,0,.5054,2.4059,6.5341,6.5341,0,0,0,1.7388,2.2644,26.04,26.04,0,0,0,3.6392,2.5475c1.5365.95,3.5583,2.042,5.9642,3.3561a41.0093,41.0093,0,0,1,7.5615,4.8725,10.2633,10.2633,0,0,1,2.77,3.7808,13.84,13.84,0,0,1,.95,4.9534,12.25,12.25,0,0,1-4.2862,9.8258c-2.83,2.406-6.6314,3.5584-11.5039,3.5584a24.8525,24.8525,0,0,1-8.8757-1.5972,14.9664,14.9664,0,0,1-2.6283-1.2333c-.7885-.5055-2.042-1.2333-3.5583-2.3251l3.0529-4.731c1.395.95,2.4059,1.5973,3.1944,2.0421a22.225,22.225,0,0,0,2.325,1.0917,18.5413,18.5413,0,0,0,6.9145,1.2333,10.6641,10.6641,0,0,0,6.6921-1.9005,6.4241,6.4241,0,0,0,2.406-5.3779,7.33,7.33,0,0,0-.7279-3.4168,10.669,10.669,0,0,0-4.084-3.9425,26.5693,26.5693,0,0,0-2.6283-1.3748c-1.3142-.647-3.1338-1.6781-5.378-2.9114a26.1249,26.1249,0,0,1-7.8647-5.9036,10.3839,10.3839,0,0,1-2.406-6.6921,11.6705,11.6705,0,0,1,4.3671-9.24,16.5708,16.5708,0,0,1,5.014-2.6283,22.4073,22.4073,0,0,1,6.49-.8694,28.5541,28.5541,0,0,1,4.1446.2831,23.6394,23.6394,0,0,1,3.9223.8693,20.95,20.95,0,0,1,2.6283,1.0918A26.8854,26.8854,0,0,1,293.9879,32.2431Z"/><path class="cls-4" d="M339.2961,77.0661H332.887l-4.9533-14.1929H308.5043l-4.9534,14.1929h-6.409l17.913-49.4124h6.409ZM326.0534,57.4143,318.27,35.4375l-7.8647,21.9768Z"/><path class="cls-4" d="M382.38,77.0661h-6.8337L362.304,57.475,348.9,77.0661h-6.9145l16.8212-24.5243L342.7938,29.0285h6.8336l12.7373,18.4791L374.96,29.0285h6.773L365.64,52.6025Z"/><path class="cls-4" d="M416.4677,77.0661H388.81V29.0285h27.0111v5.014H394.7941V50.055h17.3874v5.0141H394.7941V72.0319h21.6938v5.0342Z"/></g><g id="Cirkel"><path class="cls-5" d="M475.7575,40.578a25.183,25.183,0,0,1,3.9639-5.1L466.72,21.221a44.5148,44.5148,0,0,0-8.2533,10.7438l17.2909,8.6132"/><path class="cls-6" d="M507.6307,30.5057a24.9416,24.9416,0,0,1,5.4536,3.4158l13.0369-14.2334a44.3824,44.3824,0,0,0-11.5543-7.2106l-6.9362,18.0282"/><path class="cls-7" d="M537.491,34.7931l-17.2829,8.6147a24.6976,24.6976,0,0,1,1.7319,6.1058L541.1636,47.7a43.7872,43.7872,0,0,0-3.6726-12.9067"/><path class="cls-8" d="M518.97,40.91l17.28-8.6137a44.4139,44.4139,0,0,0-8.0764-10.72L515.136,35.8082A25.08,25.08,0,0,1,518.97,40.91"/><path class="cls-9" d="M472.3223,53.1894c0-.3876.0123-.7752.0312-1.1627l-19.2288-1.7195c-.06.9515-.0964,1.9133-.0964,2.8822a44.33,44.33,0,0,0,1.3078,10.695l18.5716-5.3254a25.02,25.02,0,0,1-.5854-5.37"/><path class="cls-10" d="M516.5508,68.9946a25.2258,25.2258,0,0,1-4.6887,4.412l10.15,16.4359a44.551,44.551,0,0,0,9.9425-9.232L516.5508,68.9946"/><path class="cls-11" d="M522.2086,53.1894a24.7433,24.7433,0,0,1-.5721,5.307l18.57,5.3338a44.1307,44.1307,0,0,0,1.2981-10.6408q0-1.3626-.0882-2.715l-19.2248,1.8168c.0114.3014.0175.6.0175.8982"/><path class="cls-12" d="M478.2927,69.3627l-15.3665,11.68a44.57,44.57,0,0,0,10.0349,9.0915l10.1505-16.42a25.2641,25.2641,0,0,1-4.8189-4.3515"/><path class="cls-13" d="M472.6344,49.2532a24.5874,24.5874,0,0,1,1.842-6.1939l-17.2745-8.6066A43.8933,43.8933,0,0,0,453.39,47.5266l19.2447,1.7266"/><path class="cls-14" d="M519.6515,91.3292,509.5131,74.9138a24.7538,24.7538,0,0,1-5.916,2.4054l3.5783,18.9889a43.9322,43.9322,0,0,0,12.4761-4.9789"/><path class="cls-15" d="M520.8972,61.1858a24.93,24.93,0,0,1-2.6986,5.5573l15.4156,11.6281a44.074,44.074,0,0,0,5.8381-11.8538l-18.5551-5.3316"/><path class="cls-16" d="M500.8635,77.8729a24.5676,24.5676,0,0,1-6.5015.09L490.7883,96.952a44.393,44.393,0,0,0,13.6494-.1066l-3.5742-18.9725"/><path class="cls-17" d="M498.8611,28.2972a24.7447,24.7447,0,0,1,6.1713,1.1925l6.9353-18.0246a43.9538,43.9538,0,0,0-13.1066-2.48V28.2972"/><path class="cls-18" d="M491.6147,77.4884a24.77,24.77,0,0,1-6.1233-2.3162L475.3336,91.6a44.0189,44.0189,0,0,0,12.7083,4.8569l3.5728-18.9684"/><path class="cls-19" d="M489.7686,29.4a24.7763,24.7763,0,0,1,6.3026-1.1212V8.9694a44.0772,44.0772,0,0,0-13.285,2.42L489.7686,29.4"/><path class="cls-20" d="M476.6024,67.1439a24.7775,24.7775,0,0,1-2.9421-5.9L455.102,66.5718a44.0893,44.0893,0,0,0,6.1294,12.2515l15.371-11.6794"/><path class="cls-21" d="M481.812,33.6274a24.907,24.907,0,0,1,5.3487-3.2375l-6.9789-18.0015a44.2059,44.2059,0,0,0-11.381,6.97l13.0112,14.269"/><path class="cls-3" d="M526.6544,30.9748c.2276.47,2.9693-1.2621,5.4577-2.2362a17.2989,17.2989,0,0,1,6.25-1.4693c1.6743.0277,2.6361.384,3.4594,1.9082a10.43,10.43,0,0,1,1.0151,4.6c.1117,1.621-.5383,7.618-.1723,7.7359s1.5329-4.4816,2.0968-6.6225c.5618-2.1429,1.6477-6.4948,1.6477-6.4948s.646-3.68,1.578-5.1354a14.7,14.7,0,0,1,3.0749-3.0349,15.4494,15.4494,0,0,0,3.4205-3.9,13.671,13.671,0,0,0,1.6189-3.9547c.2759-.9878.4471-1.8368.4471-1.8368a7.9237,7.9237,0,0,1-.4184,3.4578,17.149,17.149,0,0,1-2.5756,4.6345s1.45.446,2.5469.6936a8.7644,8.7644,0,0,0,2.5418.3153c.8787-.119.933-.2835,1.3626-.2835s.4307.7142.4768,2.3157-.0185,3.0673.0185,4.3479c.0359,1.2821.0912,2.39.1558,3.7629s.2379,8.0113.2379,8.0113,1.4733-4.012,1.9768-5.43,1.0428-3.0759,1.5472-4.7241,1.0427-3.4241,1.4642-4.9795.6777-2.7459,1.0252-4.3295a24.5936,24.5936,0,0,0,.7188-6.4368A3.3083,3.3083,0,0,0,565.38,8.9166a6.4035,6.4035,0,0,0-3.1036-.2758,28.66,28.66,0,0,1-2.8555.3671c-1.053.0174-2.9478-.1384-2.9017-1.356a9.7931,9.7931,0,0,1,.54-2.5633,8.1227,8.1227,0,0,1,1.0335-1.7661c.4583-.4578,1.0541-.21,1.0079-.4578-.0472-.2466-1.1535-.4762-1.3555-.7685A3.12,3.12,0,0,0,556.3537.8884a4.118,4.118,0,0,0-2.5992-.0559,5.8889,5.8889,0,0,0-2.6,1.3094c-.7136.5767-1.9686,2.6452-3.5426,2.7555s-3.0287-1.73-3.0287-1.73L542.64,1.1535A4.1189,4.1189,0,0,0,539.4565.0174,5.55,5.55,0,0,0,536.6,1.0432a19.9815,19.9815,0,0,0-4.4684,4.0274s-2.9139,3.3462-5.1788,6.3257-5.8362,8.157-5.8362,8.157,3.8573-2.13,6.1909-3.502c2.3357-1.3724,3.282-2.0465,5.1625-3.3508,1.8824-1.3042,3.8459-2.4027,3.8459-2.4027a.9406.9406,0,0,1,.5763-.1657c.3148.0293,1.1412,1.7319,2.7068,2.9668a7.74,7.74,0,0,0,3.4584,1.7436,1.4269,1.4269,0,0,0,.6193-.0974,3.0861,3.0861,0,0,0-.2061.7284,18.0382,18.0382,0,0,1-.8941,4.0106,7.5061,7.5061,0,0,1-2.7858,2.4166c-.6725.4245-2.2259,1.496-5.8914,3.9271C530.2327,28.2572,526.4247,30.5073,526.6544,30.9748ZM554.8025,2.247a.9146.9146,0,0,1-1.0069-.8239.8144.8144,0,0,1,.1969-.1005,1.1813,1.1813,0,0,1,.2378.0236s.0923.5394.564.5122.42-.5358.42-.5358.0913-.01.1744-.01a.3952.3952,0,0,1,.1783.0647A.7586.7586,0,0,1,554.8025,2.247ZM544.1976,18.5361a46.9119,46.9119,0,0,1,2.2793-8.101c1.18-2.6643,2.2793-4.0094,2.8021-4.0649.5209-.0543,1.0428,1.4561,2.5541,2.3347,1.5092.8787,2.4711.5485,2.8125.9479.3445.3994.4265.8378.2081,2.0737a12.97,12.97,0,0,1-2.1153,5.1625c-1.51,2.3346-5.7561,5.5475-5.7561,5.5475-1.8281,1.4549-3.525,2.6627-3.7793,2.3649C542.9508,24.5015,543.5937,21.0082,544.1976,18.5361Z"/></g></svg>